<?xml version="1.0" standalone="no"?>
<!DOCTYPE svg PUBLIC "-//W3C//DTD SVG 20010904//EN"
 "http://www.w3.org/TR/2001/REC-SVG-20010904/DTD/svg10.dtd">
<svg version="1.0" xmlns="http://www.w3.org/2000/svg"
 width="166.000000pt" height="166.000000pt" viewBox="0 0 166.000000 166.000000"
 preserveAspectRatio="xMidYMid meet">
<metadata>
Created by potrace 1.11, written by Peter Selinger 2001-2013
</metadata>
<g transform="translate(0.000000,166.000000) scale(0.100000,-0.100000)"
fill="#000000" stroke="none">
<path d="M685 1649 c-70 -15 -79 -17 -130 -34 -216 -74 -399 -247 -490 -464
-50 -118 -60 -179 -59 -336 1 -144 24 -238 87 -359 139 -268 403 -437 699
-447 44 -2 63 2 78 16 47 43 8 105 -68 106 -99 1 -181 23 -292 77 -78 38 -109
61 -180 131 -69 69 -94 103 -127 171 -103 211 -105 424 -6 638 26 58 119 177
171 220 101 85 225 141 356 163 57 9 81 17 91 33 20 28 19 52 -5 76 -21 21
-56 24 -125 9z"/>
<path d="M970 1615 c-17 -21 -16 -64 3 -82 18 -19 61 -20 82 -3 18 15 20 71 3
88 -17 17 -73 15 -88 -3z"/>
<path d="M1191 1529 c-37 -35 -25 -66 49 -123 82 -63 99 -81 159 -159 45 -60
104 -183 114 -237 3 -14 8 -41 11 -60 4 -19 8 -59 10 -88 5 -81 50 -115 101
-76 17 13 20 25 18 96 -7 234 -146 491 -336 620 -72 49 -97 54 -126 27z"/>
<path d="M703 1402 c-250 -50 -453 -295 -453 -547 0 -44 4 -57 22 -69 30 -21
50 -20 76 4 16 15 22 32 22 61 0 58 27 156 57 208 137 236 439 304 663 151 74
-50 92 -55 120 -32 30 24 29 67 -1 97 -54 53 -173 111 -269 132 -52 10 -172 8
-237 -5z"/>
<path d="M718 1152 c-241 -88 -304 -398 -115 -567 84 -76 217 -107 324 -75 59
18 143 80 180 134 58 84 75 204 34 237 -43 35 -91 6 -97 -61 -11 -116 -104
-203 -215 -201 -122 2 -210 89 -213 211 -2 120 84 208 219 222 20 2 34 12 45
31 13 24 13 30 0 55 -13 23 -23 27 -65 29 -28 2 -70 -5 -97 -15z"/>
<path d="M991 1074 c-11 -8 -26 -33 -33 -55 -15 -50 -70 -99 -113 -99 -46 0
-79 -22 -91 -60 -21 -62 12 -109 77 -110 47 0 77 32 83 87 2 23 13 55 25 71
20 29 75 62 103 62 23 0 38 22 38 56 0 50 -48 76 -89 48z"/>
<path d="M1297 982 c-15 -17 -17 -32 -11 -113 5 -84 3 -103 -20 -174 -89 -276
-397 -400 -654 -265 -67 35 -94 37 -121 9 -19 -21 -20 -28 -8 -64 7 -21 97
-75 158 -94 69 -22 84 -24 176 -27 202 -6 385 88 496 256 64 97 89 180 93 305
5 133 -11 178 -62 183 -20 2 -36 -3 -47 -16z"/>
<path d="M328 639 c-12 -6 -18 -22 -18 -44 0 -63 82 -88 107 -33 28 63 -29
112 -89 77z"/>
<path d="M1506 595 c-8 -8 -29 -43 -47 -78 -31 -62 -105 -161 -153 -206 -14
-14 -26 -34 -26 -46 0 -34 28 -65 59 -65 64 0 260 262 261 348 0 27 -33 62
-59 62 -11 0 -26 -7 -35 -15z"/>
<path d="M1077 162 c-36 -39 -7 -102 45 -102 25 0 58 36 58 63 0 50 -70 76
-103 39z"/>
</g>
</svg>
